HIERARCHY
ROOT Hips
{
 OFFSET 0.000000 0.000000 0.000000
 CHANNELS 6 Xposition Yposition Zposition Yrotation Xrotation Zrotation
 JOINT Chest
 {
  OFFSET 0.000000 9.585900 0.002600
  CHANNELS 3 Yrotation Xrotation Zrotation
  JOINT Chest2
  {
   OFFSET 0.000000 9.601200 -0.005300
   CHANNELS 3 Yrotation Xrotation Zrotation
   JOINT Chest3
   {
    OFFSET 0.000000 9.561800 0.000000
    CHANNELS 3 Yrotation Xrotation Zrotation
    JOINT Chest4
    {
     OFFSET 0.000000 9.552100 0.000000
     CHANNELS 3 Yrotation Xrotation Zrotation
     JOINT Neck
     {
      OFFSET 0.000000 14.453000 0.000000
      CHANNELS 3 Yrotation Xrotation Zrotation
      JOINT Head
      {
       OFFSET 0.000000 8.936500 -0.011300
       CHANNELS 3 Yrotation Xrotation Zrotation
       End Site
       {
        OFFSET 0.000000 17.073600 -0.006000
       }
      }
     }
     JOINT RightCollar
     {
      OFFSET -2.921100 9.558500 0.000000
      CHANNELS 3 Yrotation Xrotation Zrotation
      JOINT RightShoulder
      {
       OFFSET -13.519700 0.000000 0.000000
       CHANNELS 3 Yrotation Xrotation Zrotation
       JOINT RightElbow
       {
        OFFSET 0.000000 -29.696600 0.000000
        CHANNELS 3 Yrotation Xrotation Zrotation
        JOINT RightWrist
        {
         OFFSET 0.000000 -24.004700 0.000000
         CHANNELS 3 Yrotation Xrotation Zrotation
         End Site
         {
          OFFSET 0.000000 -17.728500 0.000000
         }
        }
       }
      }
     }
     JOINT LeftCollar
     {
      OFFSET 2.921100 9.558500 0.000000
      CHANNELS 3 Yrotation Xrotation Zrotation
      JOINT LeftShoulder
      {
       OFFSET 13.519700 0.000000 0.000000
       CHANNELS 3 Yrotation Xrotation Zrotation
       JOINT LeftElbow
       {
        OFFSET 0.000000 -29.696600 0.000000
        CHANNELS 3 Yrotation Xrotation Zrotation
        JOINT LeftWrist
        {
         OFFSET 0.000000 -24.004700 0.000000
         CHANNELS 3 Yrotation Xrotation Zrotation
         End Site
         {
          OFFSET 0.000000 -17.728500 0.000000
         }
        }
       }
      }
     }
    }
   }
  }
 }
 JOINT RightHip
 {
  OFFSET -7.771700 -0.012900 -0.001300
  CHANNELS 3 Yrotation Xrotation Zrotation
  JOINT RightKnee
  {
   OFFSET 0.000000 -40.869800 0.001200
   CHANNELS 3 Yrotation Xrotation Zrotation
   JOINT RightAnkle
   {
    OFFSET 0.000000 -39.717900 0.002100
    CHANNELS 3 Yrotation Xrotation Zrotation
    JOINT RightToe
    {
     OFFSET 0.000000 -4.965400 11.033500
     CHANNELS 3 Yrotation Xrotation Zrotation
     End Site
     {
      OFFSET 0.000000 -1.423100 5.872300
     }
    }
   }
  }
 }
 JOINT LeftHip
 {
  OFFSET 7.771700 -0.012900 -0.001300
  CHANNELS 3 Yrotation Xrotation Zrotation
  JOINT LeftKnee
  {
   OFFSET 0.000000 -40.869800 0.001200
   CHANNELS 3 Yrotation Xrotation Zrotation
   JOINT LeftAnkle
   {
    OFFSET 0.000000 -39.717900 0.002100
    CHANNELS 3 Yrotation Xrotation Zrotation
    JOINT LeftToe
    {
     OFFSET 0.000000 -4.965400 11.033500
     CHANNELS 3 Yrotation Xrotation Zrotation
     End Site
     {
      OFFSET 0.000000 -1.423100 5.872300
     }
    }
   }
  }
 }
}
MOTION
Frames: 12
Frame Time: 0.008333
0.000000 85.388000 0.000000 0.000000 -5.767877 0.000000 0.000000 11.653817 0.000000 0.000000 -5.885947 0.000000 0.000000 -0.000000 0.000000 0.000000 -0.000000 0.000000 0.000000 12.528835 0.000000 0.000000 0.711642 0.000000 0.000000 -0.000000 0.000000 0.000000 0.000000 -90.000000 0.000000 -2.309062 0.000000 0.000000 2.309062 0.000000 0.000000 -0.000000 0.000000 0.000000 -0.000000 90.000000 0.000000 -2.309062 0.000000 0.000000 2.309062 0.000000 0.000000 8.520406 0.000000 0.000000 1.905762 0.000000 -0.000000 -4.658285 0.000000 0.000000 -0.000000 0.000000 0.000000 8.520406 0.000000 0.000000 1.905762 0.000000 -0.000000 -4.658285 0.000000 0.000000 -0.000000 0.000000
-53.325555 50.110185 36.148835 171.296874 -35.766160 -4.369362 8.636299 23.969837 7.116477 1.182939 3.963142 0.818208 1.961062 6.416156 1.413924 6.821657 19.824505 5.241454 -3.512183 18.722487 1.132115 -6.816137 -0.905090 3.184998 -1.732781 -0.139237 -11.742288 7.067501 -11.693595 -1.544111 171.702859 -52.493116 176.010394 -4.857497 -13.808886 13.533269 -18.875628 2.263211 5.475379 6.421687 -22.988105 4.747189 124.961326 -46.467413 -147.576632 36.747635 -8.883776 -12.870418 3.234614 -46.337943 8.393062 -15.714306 86.242819 -4.412366 -3.609002 -5.215158 -4.630652 0.026579 0.196010 -0.023424 -9.112612 -49.314578 16.937090 -130.571834 87.429048 -137.276152 -0.216414 -7.147031 3.494879 -0.036016 -0.217346 -0.007442
-53.321986 50.109845 36.146708 171.286198 -35.764227 -4.354570 8.672781 23.998372 7.140774 1.167402 3.972607 0.822495 1.990862 6.437950 1.420313 6.851372 19.862705 5.272386 -3.545503 18.652267 1.112098 -6.885700 -1.055682 3.160458 -1.889676 -0.143484 -11.721151 6.868743 -11.677244 -1.557928 171.618869 -52.547260 176.019259 -4.846657 -13.815833 13.533019 -18.905474 2.228178 5.519332 6.655452 -22.977454 4.671344 125.082634 -46.506646 -147.613903 36.733567 -8.885967 -12.866066 3.242856 -46.341639 8.389952 -15.658730 86.249354 -4.357424 -3.603102 -5.216928 -4.634608 0.035864 0.202601 -0.012874 -9.112409 -49.312732 16.931461 -130.623872 87.430138 -137.334896 -0.214121 -7.151427 3.488937 -0.036041 -0.217364 -0.008532
-53.317854 50.109390 36.143288 171.284534 -35.765591 -4.345464 8.721633 24.031012 7.173343 1.155617 3.981759 0.827439 2.021225 6.464447 1.429270 6.896337 19.903986 5.309827 -3.589659 18.547401 1.090852 -6.933517 -1.209409 3.146976 -2.077507 -0.178617 -11.703132 6.689159 -11.659962 -1.555174 171.545938 -52.648471 176.008947 -4.849619 -13.800384 13.517375 -18.971441 2.171440 5.579024 6.871512 -22.961097 4.596782 125.113542 -46.526632 -147.577570 36.736951 -8.912391 -12.826062 3.247670 -46.341750 8.388117 -15.546716 86.255181 -4.242194 -3.612192 -5.219593 -4.641348 0.044717 0.203413 -0.008648 -9.118991 -49.308918 16.921938 -130.697656 87.430308 -137.411923 -0.206506 -7.155247 3.482028 -0.036083 -0.218366 -0.011141
-53.312934 50.108693 36.138732 171.297176 -35.769097 -4.348628 8.770214 24.068385 7.214397 1.203670 4.035051 0.854271 1.990874 6.450573 1.420748 6.922476 19.928463 5.336025 -3.607022 18.451503 1.079472 -6.966308 -1.387043 3.137311 -2.256459 -0.218904 -11.691036 6.524967 -11.643121 -1.527614 171.462905 -52.787935 176.003540 -4.857976 -13.771017 13.478540 -19.032468 2.112897 5.647367 7.061186 -22.928862 4.521476 125.079544 -46.537489 -147.479986 36.744453 -8.951137 -12.769350 3.239980 -46.339270 8.389673 -15.425539 86.265991 -4.119012 -3.600589 -5.218006 -4.657331 0.027508 0.199125 0.003731 -9.138569 -49.305353 16.907949 -130.869963 87.429321 -137.575426 -0.195210 -7.159337 3.464810 -0.032871 -0.219192 -0.011953
-53.310261 50.107600 36.132534 171.350053 -35.772635 -4.362144 8.773547 24.115690 7.241255 1.225308 4.065290 0.867818 1.983044 6.461744 1.425024 6.938758 19.956547 5.361347 -3.615299 18.343057 1.065715 -6.982212 -1.588607 3.121276 -2.417102 -0.278220 -11.701246 6.375997 -11.631177 -1.474366 171.351983 -52.955483 176.017330 -4.854211 -13.732492 13.412569 -19.079215 2.027177 5.714405 7.220421 -22.877317 4.441452 125.023654 -46.564449 -147.339551 36.750233 -8.979592 -12.724030 3.215666 -46.330069 8.371538 -15.141180 86.280431 -3.828323 -3.622951 -5.232434 -4.667378 0.027346 0.199944 0.007447 -9.183169 -49.303400 16.874678 -131.268604 87.438375 -137.970806 -0.187743 -7.156734 3.451784 -0.034328 -0.222471 -0.015500
-53.306955 50.105385 36.126854 171.371234 -35.769426 -4.363375 8.781572 24.147924 7.261392 1.230093 4.095754 0.883722 1.987964 6.486392 1.434659 6.943282 19.987117 5.382795 -3.618280 18.221740 1.047064 -6.987422 -1.814661 3.095412 -2.548187 -0.351089 -11.736950 6.243922 -11.624623 -1.403715 171.208931 -53.146295 176.054890 -4.832014 -13.684515 13.314332 -19.111367 1.909231 5.734220 7.342741 -22.805340 4.396620 124.988408 -46.631179 -147.180279 36.741102 -8.976373 -12.701877 3.219423 -46.334219 8.355772 -14.940760 86.295357 -3.614919 -3.644124 -5.245111 -4.677972 0.028403 0.201660 0.010909 -9.194626 -49.310498 16.849401 -131.558326 87.440693 -138.253842 -0.182176 -7.158991 3.446667 -0.033576 -0.224778 -0.018953
-53.303093 50.103159 36.120551 171.378992 -35.766985 -4.360990 8.786950 24.202700 7.296742 1.231776 4.091916 0.876879 1.992231 6.531550 1.456935 6.941473 20.019459 5.401526 -3.630303 18.088557 1.010089 -6.985400 -2.071226 3.076510 -2.662300 -0.437695 -11.793869 6.131446 -11.623360 -1.327939 171.036012 -53.359508 176.116849 -4.799712 -13.624163 13.183362 -19.075583 1.770521 5.802732 7.374677 -22.761486 4.288508 125.006467 -46.785259 -146.986842 36.705222 -8.940831 -12.687760 3.233753 -46.341925 8.350394 -14.584403 86.308866 -3.252128 -3.675941 -5.252916 -4.683325 0.023442 0.201123 0.017314 -9.199823 -49.315880 16.825330 -131.924377 87.441725 -138.607301 -0.173339 -7.167863 3.438384 -0.033930 -0.224539 -0.026331
-53.299157 50.100875 36.114081 171.378830 -35.761779 -4.354651 8.796590 24.275388 7.345325 1.228003 4.033242 0.835337 2.003156 6.619714 1.506601 6.939760 20.053729 5.421840 -3.666660 17.946364 0.942271 -6.976409 -2.367651 3.080395 -2.781538 -0.540610 -11.864198 6.040581 -11.630574 -1.253992 170.838099 -53.593736 176.198863 -4.766588 -13.549499 13.035319 -18.997566 1.598575 5.871819 7.357047 -22.701362 4.174868 125.081678 -46.996017 -146.815873 36.646310 -8.886268 -12.670167 3.250602 -46.353518 8.352630 -14.733310 86.318796 -3.395150 -3.699152 -5.262648 -4.690422 0.035389 0.204241 0.020274 -9.206525 -49.322721 16.810057 -132.317188 87.443181 -138.993533 -0.167813 -7.176474 3.431705 -0.032931 -0.225109 -0.030352
-53.296920 50.097063 36.109591 171.370625 -35.736999 -4.334486 8.813389 24.314148 7.374615 1.214971 4.053321 0.842300 2.025500 6.649097 1.517085 6.944887 20.089697 5.446964 -3.696472 17.784596 0.923109 -6.999200 -2.702599 3.042996 -2.926107 -0.662061 -11.935355 5.975872 -11.641715 -1.184420 170.623254 -53.845718 176.288813 -4.734097 -13.470133 12.895637 -18.920599 1.404876 5.929460 7.336151 -22.546834 4.064202 125.270857 -47.212751 -146.775415 36.568033 -8.821514 -12.648789 3.280807 -46.389141 8.339950 -14.872550 86.334201 -3.538241 -3.696366 -5.269634 -4.692862 0.024577 0.205237 0.030393 -9.208353 -49.350645 16.789171 -132.631912 87.443461 -139.308114 -0.153861 -7.179024 3.434664 -0.033935 -0.228037 -0.041797
-53.291941 50.096157 36.102431 171.370754 -35.733617 -4.331161 8.849383 24.360524 7.426182 1.232608 4.138596 0.889142 2.020270 6.616168 1.490335 6.961935 20.124163 5.478338 -3.677976 17.569503 0.949732 -7.096949 -3.027590 2.975779 -3.105836 -0.795486 -11.996380 5.940061 -11.645480 -1.125655 170.410379 -54.109082 176.366515 -4.703823 -13.399748 12.783396 -18.854169 1.205837 5.996347 7.261295 -22.436832 3.954326 125.468826 -47.502377 -146.690814 36.467035 -8.753801 -12.613811 3.293791 -46.398424 8.355415 -15.105899 86.343663 -3.781687 -3.699420 -5.279750 -4.687593 0.024628 0.207784 0.034984 -9.226686 -49.351234 16.785990 -132.839288 87.438776 -139.515228 -0.139472 -7.190790 3.427866 -0.030213 -0.225278 -0.039766
-53.287290 50.097032 36.093637 171.375332 -35.742330 -4.324414 8.891517 24.408503 7.477440 1.249172 4.174479 0.910208 2.020061 6.623780 1.492065 6.984273 20.150486 5.513578 -3.710145 17.375883 0.920129 -7.155963 -3.386825 2.944015 -3.310209 -0.923130 -12.047666 5.932568 -11.643812 -1.084456 170.212931 -54.381531 176.428542 -4.680035 -13.339843 12.698746 -18.788852 1.015029 6.061132 7.170381 -22.347527 3.853051 125.621456 -47.815020 -146.564588 36.344236 -8.696531 -12.550416 3.301667 -46.391768 8.362868 -15.405902 86.353969 -4.093184 -3.687379 -5.291334 -4.681528 0.013768 0.208498 0.030945 -9.241785 -49.337033 16.762957 -133.133911 87.439062 -139.801387 -0.125703 -7.206608 3.408071 -0.026591 -0.222090 -0.044266
